<svg width="40" height="40" viewBox="0 0 40 40" fill="none" xmlns="http://www.w3.org/2000/svg">
<path d="M2.14011 0.733795C0.939963 0.733795 0 1.76682 0 2.97017V12.0398C0.00149834 12.4321 0.31919 12.7498 0.71151 12.7513C1.10383 12.7499 1.42149 12.4321 1.42302 12.0398V2.97017C1.42302 2.48602 1.75737 2.16379 2.14011 2.16379H37.8537C38.2364 2.16379 38.5708 2.48602 38.5708 2.97017V24.974H1.42302V14.9975C1.42152 14.6051 1.10383 14.2875 0.71151 14.286C0.31919 14.2874 0.00153074 14.6051 0 14.9975V28.8594C0 30.0627 0.939963 31.1013 2.14011 31.1013H15.8011L14.7966 34.1217H12.4807C11.0988 34.1217 9.99741 35.2969 9.99741 36.6901C9.99741 38.0833 11.0988 39.2627 12.4807 39.2627H27.5131C28.895 39.2627 29.9964 38.0833 29.9964 36.6901C29.9964 35.2969 28.895 34.1217 27.5131 34.1217H25.2028L24.1983 31.1013H37.8537C39.0539 31.1013 39.9994 30.0627 39.9994 28.8594V2.97017C39.9994 1.76682 39.0539 0.733795 37.8537 0.733795H2.14011ZM29.9964 4.55223C26.0599 4.55223 22.852 7.75454 22.852 11.691C22.852 15.6275 26.0599 18.8354 29.9964 18.8354C33.9329 18.8354 37.1422 15.6275 37.1422 11.691C37.1422 7.75454 33.9329 4.55223 29.9964 4.55223ZM29.2849 6.02966V10.9795H24.3294C24.6499 8.3877 26.6924 6.34945 29.2849 6.02966ZM30.7149 6.02966C33.5378 6.38129 35.7136 8.77052 35.7136 11.691C35.7136 12.8562 35.3644 13.9363 34.7691 14.8384L30.7149 11.3646V6.02966ZM10.7145 8.83942C10.3199 8.8379 9.9988 9.15631 9.99741 9.55093V21.1555H8.56741V14.9975C8.56606 14.6049 8.24847 14.2874 7.85591 14.286H4.99871C4.60409 14.2845 4.28301 14.6028 4.28162 14.9975V21.1555H3.57011C3.4756 21.155 3.38192 21.1732 3.2945 21.2091C3.20707 21.245 3.12765 21.2979 3.06082 21.3647C2.99399 21.4315 2.94109 21.511 2.90518 21.5984C2.86927 21.6858 2.85106 21.7795 2.85162 21.874C2.85198 21.9679 2.87087 22.0609 2.90719 22.1475C2.94351 22.2341 2.99656 22.3127 3.0633 22.3788C3.13003 22.4449 3.20915 22.4971 3.29611 22.5326C3.38308 22.5681 3.47619 22.5861 3.57011 22.5855H20.7119C20.8057 22.5859 20.8987 22.5678 20.9855 22.5322C21.0723 22.4967 21.1512 22.4443 21.2178 22.3783C21.2844 22.3122 21.3373 22.2337 21.3736 22.1471C21.4098 22.0606 21.4286 21.9678 21.429 21.874C21.4295 21.7796 21.4114 21.686 21.3756 21.5987C21.3397 21.5114 21.287 21.432 21.2203 21.3652C21.1536 21.2984 21.0743 21.2455 20.9871 21.2095C20.8998 21.1735 20.8063 21.1551 20.7119 21.1555H20.0004V12.4081C20.0019 12.0115 19.6786 11.6895 19.2819 11.691H16.4247C16.0301 11.6925 15.7117 12.0135 15.7132 12.4081V21.1555H14.2846V9.55093C14.2832 9.15631 13.9607 8.8379 13.5661 8.83942H10.7145ZM11.426 10.268H12.8546V21.1555H11.426V10.268ZM24.3294 12.4081H29.7355L33.8358 15.9238C32.8216 16.8432 31.4778 17.4068 29.9964 17.4068C27.0754 17.4068 24.6812 15.2315 24.3294 12.4081ZM17.1418 13.1196H18.5704V21.1555H17.1418V13.1196ZM5.71021 15.709H7.13881V21.1555H5.71021V15.709ZM1.42302 26.4025H38.5708V28.8594C38.5708 29.3435 38.2365 29.6713 37.8537 29.6713H2.14011C1.75737 29.6713 1.42302 29.3435 1.42302 28.8594V26.4025ZM17.305 31.1013H22.6888L23.6961 34.1217H16.2978L17.305 31.1013ZM12.4807 35.5517H27.5131C28.0909 35.5517 28.5678 36.028 28.5678 36.6901C28.5678 37.3522 28.0909 37.8341 27.5131 37.8341H12.4807C11.9029 37.8341 11.426 37.3522 11.426 36.6901C11.426 36.028 11.9029 35.5517 12.4807 35.5517Z" fill="#FAFAFA"/>
</svg>
